# xmcd
#
# Track frame offsets:
#	150
#	14997
#	29047
#	41687
#	60777
#	78135
#	95727
#	108372
#	122187
#	133642
#	146787
#	160142
#
# Disc length: 2352 seconds
#
# Revision: 0
# Processed by: cddbd v1.5.1PL0 Copyright (c) Steve Scherf et al.
# Submitted via: dBpowerAMP V4.0
#
DISCID=a6092e0c
DTITLE=Donizete Marcio - A garganta de ouro do Brasil
DYEAR=1900
DGENRE=Sertanejo
TTITLE0=PANELA VELHA
TTITLE1=CABECINHA NO OMBRO
TTITLE2=O MENINO TROPEIRO
TTITLE3=FILHO DO PALHAÇO
TTITLE4=ISTO É A FELICIDADE
TTITLE5=MAE, MINHA MAE
TTITLE6=MORRENDO DE AMOR
TTITLE7=MENINO DE RUA
TTITLE8=ADELITA
TTITLE9=CANÇÃO DO SUCESSO
TTITLE10=DESPEDIDA
TTITLE11=BATE BATE CORAÇÃO
EXTD=incluindo sucessos Mãe, minha mãe e filho do palhaço
EXTT0=
EXTT1=
EXTT2=
EXTT3=
EXTT4=
EXTT5=
EXTT6=
EXTT7=
EXTT8=
EXTT9=
EXTT10=
EXTT11=
PLAYORDER=
